<?xml version="1.0" standalone="no"?>
<!DOCTYPE svg PUBLIC "-//W3C//DTD SVG 20010904//EN"
 "http://www.w3.org/TR/2001/REC-SVG-20010904/DTD/svg10.dtd">
<svg version="1.0" xmlns="http://www.w3.org/2000/svg"
 width="2500.000000pt" height="2500.000000pt" viewBox="0 0 2500.000000 2500.000000"
 preserveAspectRatio="xMidYMid meet">
<metadata>
Created by potrace 1.11, written by Peter Selinger 2001-2013
</metadata>
<g transform="translate(0.000000,2500.000000) scale(0.100000,-0.100000)"
fill="#000000" stroke="none">
<path d="M12055 23214 c-401 -54 -798 -182 -1190 -383 -754 -387 -1458 -1051
-2042 -1926 -743 -1114 -1292 -2578 -1552 -4143 -95 -567 -170 -1276 -183
-1732 l-3 -104 135 -114 c904 -762 2051 -1347 3209 -1638 480 -121 1081 -211
1521 -229 80 -3 166 -8 193 -11 l47 -5 0 5151 c0 4898 -1 5150 -17 5149 -10
-1 -63 -7 -118 -15z"/>
<path d="M12810 18090 l0 -5140 63 0 c150 0 529 42 827 90 1046 172 2025 538
2935 1098 411 253 898 621 1216 919 l61 58 -21 290 c-70 953 -209 1779 -440
2615 -556 2015 -1540 3600 -2785 4489 -529 377 -1161 637 -1706 700 -52 6
-107 13 -122 16 l-28 5 0 -5140z"/>
<path d="M17799 14219 c-947 -758 -2107 -1333 -3287 -1628 -1010 -253 -2078
-324 -3117 -206 -958 109 -1931 395 -2797 821 -531 262 -942 512 -1393 848
l-125 94 0 -106 c0 -138 16 -452 35 -712 82 -1092 302 -2205 627 -3165 353
-1045 832 -1964 1402 -2695 246 -315 624 -711 881 -921 691 -566 1366 -868
2135 -955 179 -20 578 -15 770 10 790 103 1561 489 2245 1123 712 659 1314
1554 1783 2648 496 1160 821 2545 926 3950 27 356 49 985 35 985 -3 0 -57 -41
-120 -91z m-4682 -3052 c533 -533 543 -543 543 -582 0 -38 -8 -47 -247 -287
-136 -136 -248 -246 -249 -245 -1 1 16 106 37 232 21 127 38 245 39 263 1 115
-128 186 -223 123 -25 -16 -172 -199 -391 -485 -48 -64 -91 -116 -95 -116 -4
0 -97 116 -207 258 -244 315 -274 349 -327 363 -52 14 -117 -10 -148 -53 -34
-48 -33 -105 9 -353 22 -126 39 -231 38 -232 -1 -1 -113 109 -249 245 -239
240 -247 249 -247 287 0 39 9 49 543 582 l542 543 45 0 45 0 542 -543z m-1025
-767 c376 -481 379 -487 380 -593 0 -69 -13 -111 -45 -145 -33 -36 -71 -52
-119 -52 -109 1 -205 96 -232 230 -16 83 -116 688 -116 706 0 24 -1 25 132
-146z m948 -226 c-63 -372 -77 -424 -134 -491 -57 -67 -165 -92 -236 -54 -81
43 -109 182 -58 291 38 82 481 653 486 627 2 -8 -24 -176 -58 -373z m-1575
-74 c132 -132 235 -240 229 -240 -6 0 -119 18 -251 40 -243 40 -266 41 -322
10 -53 -28 -77 -120 -47 -178 21 -40 58 -72 316 -272 129 -100 250 -194 269
-209 l34 -27 -284 -221 c-156 -121 -297 -234 -312 -251 -30 -31 -45 -91 -33
-136 3 -13 20 -38 36 -55 55 -54 76 -55 344 -11 133 22 245 40 251 40 17 0
-459 -471 -489 -485 -20 -9 -39 -10 -60 -4 -22 6 -189 167 -563 541 -569 569
-563 562 -530 624 9 16 251 264 539 552 362 361 533 525 553 531 17 4 41 4 55
-1 14 -5 133 -116 265 -248z m3007 -287 c290 -290 533 -540 539 -555 6 -15 8
-40 5 -55 -10 -40 -1060 -1091 -1101 -1102 -16 -4 -41 -4 -55 1 -27 9 -512
488 -495 488 6 0 119 -18 251 -40 251 -41 272 -41 327 -5 51 33 72 118 43 174
-22 41 -66 78 -466 387 -69 53 -131 102 -138 109 -11 10 41 54 270 232 282
220 315 249 337 290 25 49 2 139 -44 169 -54 35 -79 35 -329 -6 -132 -22 -245
-40 -251 -40 -17 0 459 471 489 485 20 9 39 10 60 4 22 -6 188 -166 558 -536z
m-3067 -48 c298 -46 545 -94 587 -113 63 -28 103 -66 132 -124 29 -59 32 -94
12 -142 -31 -75 -110 -113 -215 -103 -32 2 -73 13 -92 22 -55 29 -621 466
-627 486 -2 6 6 8 20 5 12 -3 95 -17 183 -31z m2455 27 c0 -16 -571 -455 -630
-484 -67 -34 -171 -36 -229 -5 -51 26 -91 89 -91 142 0 48 49 136 97 171 60
46 102 58 343 99 177 30 471 79 503 84 4 1 7 -2 7 -7z m-1181 -277 c114 -63
176 -169 175 -300 -2 -120 -69 -225 -186 -287 -36 -19 -58 -23 -138 -23 -83 0
-101 3 -145 27 -62 32 -129 103 -157 166 -30 66 -30 189 -1 254 38 84 123 160
213 189 14 5 61 7 105 6 66 -3 89 -8 134 -32z m-654 -356 c53 -15 111 -74 120
-123 16 -82 -42 -180 -135 -228 -57 -29 -231 -65 -605 -123 -88 -14 -171 -28
-183 -31 -13 -2 -22 -1 -20 5 4 11 150 128 414 331 231 177 290 202 409 169z
m1169 -3 c55 -17 157 -92 649 -478 12 -9 20 -19 17 -21 -6 -5 -272 36 -555 87
-223 40 -283 63 -338 127 -53 62 -71 143 -43 197 45 87 155 122 270 88z m-804
-338 c64 -44 75 -69 75 -171 0 -80 -3 -98 -25 -137 -38 -66 -474 -624 -478
-611 -4 12 15 136 80 511 44 257 65 318 127 372 71 62 161 77 221 36z m427 10
c57 -25 102 -69 133 -131 25 -53 39 -115 90 -421 34 -197 60 -365 58 -373 -2
-10 -30 18 -70 70 -238 304 -385 498 -405 533 -56 101 -48 227 19 290 18 18
40 34 48 37 28 10 99 7 127 -5z m-958 -663 c-21 -126 -39 -246 -39 -265 0 -54
31 -102 83 -129 58 -29 102 -23 153 21 20 18 132 156 250 307 118 152 219 276
224 276 4 0 99 -117 211 -260 255 -329 245 -316 288 -343 87 -55 212 22 210
130 0 18 -17 137 -38 263 -21 127 -38 231 -37 232 1 1 113 -109 249 -245 264
-265 266 -268 233 -330 -8 -15 -252 -264 -543 -554 l-528 -528 -45 0 -45 0
-542 543 c-534 533 -543 543 -543 582 0 38 8 47 247 287 136 136 248 246 249
245 1 -1 -16 -105 -37 -232z"/>
<path d="M9713 6262 c-228 -341 -373 -665 -473 -1057 -70 -275 -100 -519 -100
-825 0 -268 20 -459 77 -725 27 -128 108 -404 124 -419 5 -6 9 7 9 35 0 116
67 435 126 599 145 401 373 659 659 745 97 30 267 25 375 -10 47 -15 103 -36
125 -47 63 -32 149 -122 183 -191 57 -112 67 -171 67 -382 0 -208 -6 -252 -80
-635 -57 -294 -66 -387 -67 -669 0 -250 14 -395 54 -566 115 -497 428 -908
954 -1258 122 -81 339 -207 356 -207 5 0 -6 28 -23 62 -74 147 -142 340 -180
511 -27 119 -37 385 -19 495 69 432 373 722 756 722 444 0 795 -317 879 -796
21 -118 21 -341 0 -473 -9 -56 -15 -105 -12 -107 8 -9 123 93 198 176 138 152
222 297 288 497 113 340 103 691 -29 1083 -79 233 -97 388 -64 548 25 123 74
214 163 302 124 122 276 182 466 183 168 1 279 -45 395 -163 236 -241 298
-740 165 -1324 -14 -60 -27 -119 -30 -130 -8 -28 34 19 125 140 326 433 539
939 625 1484 100 628 20 1262 -235 1857 -82 190 -226 448 -334 594 l-41 57
-80 -72 c-620 -558 -1332 -924 -2031 -1046 -227 -39 -421 -53 -674 -47 -244 6
-366 19 -583 62 -662 133 -1318 474 -1908 991 -71 63 -130 114 -132 114 -1 0
-34 -49 -74 -108z"/>
</g>
</svg>
